<mxfile host="app.diagrams.net" modified="2023-09-17T03:30:03.309Z" agent="Mozilla/5.0 (Windows NT 10.0; Win64; x64) AppleWebKit/537.36 (KHTML, like Gecko) Chrome/115.0.0.0 Safari/537.36" version="21.5.1" etag="FU53t7tRhSC7cjQ0XZnk" type="github">
  <diagram name="Trang-1" id="CE09gvAGY61HcMtBz_a0">
    <mxGraphModel>
      <root>
        <mxCell id="0" />
        <mxCell id="1" parent="0" />
      </root>
    </mxGraphModel>
  </diagram>
</mxfile>
